<svg version="1.1" width="600" height="560" xmlns="http://www.w3.org/2000/svg" >
<defs><marker id="arrowhead" markerWidth="10" markerHeight="7" refX="0" refY="3.5" orient="auto"><polygon points="0 0, 10 3.5, 0 7" /></marker></defs>
<g transform="translate(0, -50)">

<path d="M 100 60 h 400 v 40 h -400 v -40" stroke="#000000" stroke-width="1" fill="none"/>
<text x="105" y="85" style="font-size:17px;font-family:'Microsoft Yahei UI'">第一个月：传统的现场教学，扶你上马，慢慢来。</text>

<path d="M 100 140 h 400 v 40 h -400 v -40" stroke="#000000" stroke-width="1" fill="none"/>
<text x="105" y="165" style="font-size:17px;font-family:'Microsoft Yahei UI'">第二个月：网络互动教学，通过Zoom等方式进行。</text>

<path d="M 100 220 h 400 v 40 h -400 v -40" stroke="#000000" stroke-width="1" fill="none"/>
<text x="105" y="245" style="font-size:17px;font-family:'Microsoft Yahei UI'">第三个月：发放培训视频，学员自行控制学习进度。</text>

<path d="M 100 300 h 400 v 40 h -400 v -40" stroke="#000000" stroke-width="1" fill="none"/>
<text x="105" y="325" style="font-size:17px;font-family:'Microsoft Yahei UI'">进行毕业考试，考试通过者进入寻找IT工作阶段。</text>

<path d="M 100 380 h 400 v 40 h -400 v -40" stroke="#000000" stroke-width="1" fill="none"/>
<text x="105" y="405" style="font-size:17px;font-family:'Microsoft Yahei UI'">CCI帮助修改简历，提供面试真题，模拟面试等服务</text>

<path d="M 100 460 h 400 v 40 h -400 v -40" stroke="#000000" stroke-width="1" fill="none"/>
<text x="105" y="485" style="font-size:17px;font-family:'Microsoft Yahei UI'">对于成功找到工作的学员，CCI发放奖学金以资鼓励</text>

<path d="M 300 105 v 20" stroke="#000000" stroke-width="1" fill="none" marker-end="url(#arrowhead)"  />
<path d="M 300 185 v 20" stroke="#000000" stroke-width="1" fill="none" marker-end="url(#arrowhead)"  />
<path d="M 300 265 v 20" stroke="#000000" stroke-width="1" fill="none" marker-end="url(#arrowhead)"  />
<path d="M 300 345 v 20" stroke="#000000" stroke-width="1" fill="none" marker-end="url(#arrowhead)"  />
<path d="M 300 425 v 20" stroke="#000000" stroke-width="1" fill="none" marker-end="url(#arrowhead)"  />

<path d="M 505 320 h 30 v -80 h -20" stroke="#000000" stroke-width="1" fill="none" marker-end="url(#arrowhead)"  />
<text x="540" y="280" style="font-size:17px;font-family:'Microsoft Yahei UI'">考试</text>
<text x="540" y="300" style="font-size:17px;font-family:'Microsoft Yahei UI'">失败</text>
</g>
</svg>
