<?xml version="1.0" encoding="UTF-8" standalone="no"?>
<svg
   xmlns:dc="http://purl.org/dc/elements/1.1/"
   xmlns:cc="http://creativecommons.org/ns#"
   xmlns:rdf="http://www.w3.org/1999/02/22-rdf-syntax-ns#"
   xmlns:svg="http://www.w3.org/2000/svg"
   xmlns="http://www.w3.org/2000/svg"
   viewBox="0 0 300 300"
   height="300"
   width="300"
   id="svg455"
   version="1.1">
  <metadata
     id="metadata461">
    <rdf:RDF>
      <cc:Work
         rdf:about="">
        <dc:format>image/svg+xml</dc:format>
        <dc:type
           rdf:resource="http://purl.org/dc/dcmitype/StillImage" />
        <dc:title></dc:title>
      </cc:Work>
    </rdf:RDF>
  </metadata>
  <defs
     id="defs459" />
  <path
     id="path465"
     d="m 170.32912,282.6219 c -3.24684,-5.2535 -3.42318,-6.74024 -5.67065,-47.81279 -1.07823,-19.70487 -1.77769,-27.05486 -3.83368,-40.28528 -2.2183,-14.27481 -2.46738,-17.13587 -2.11242,-24.26442 0.33472,-6.72212 0.20827,-8.48854 -0.75174,-10.50172 -0.63478,-1.33114 -1.39098,-2.42026 -1.68045,-2.42026 -0.7744,0 -6.35973,8.06713 -8.34368,12.05114 -0.94305,1.89376 -3.02288,7.62667 -4.62185,12.7398 -1.59897,5.11312 -5.54868,15.80422 -8.77712,23.75798 -3.22846,7.95376 -6.29747,16.25298 -6.82002,18.44272 -1.21133,5.07598 -3.10592,8.77299 -6.32274,12.33793 -3.01065,3.33645 -5.88344,4.6881 -9.9333,4.67362 -4.93668,-0.0176 -4.94552,-0.0633 -2.00062,-10.35371 2.00251,-6.99727 4.1049,-12.16458 8.59836,-21.13324 5.05405,-10.08755 5.94777,-12.37988 5.94777,-15.25565 0,-2.79436 1.36844,-6.54696 7.85031,-21.52756 4.31766,-9.97879 10.18626,-22.89903 13.04133,-28.71163 6.33755,-12.90255 7.92738,-19.39125 5.99585,-24.47152 -0.90745,-2.38682 -6.18356,-3.86909 -13.75621,-3.86468 -8.18289,0.005 -32.56696,-3.27333 -33.41964,-4.49282 -0.54445,-0.77866 -1.23403,-0.63582 -3.878309,0.80338 l -3.216124,1.75043 -8.845935,-1.07922 c -5.982144,-0.72985 -9.072133,-0.85304 -9.544628,-0.38055 -0.384281,0.38428 -0.856094,5.14774 -1.048486,10.58549 -0.304524,8.60698 -0.527082,10.08231 -1.719374,11.39734 -3.189484,3.51785 -3.563328,3.25917 -5.16801,-3.57587 C 67.800906,120.3956 66.863689,110.96595 66.3931,91.744736 65.981961,74.952019 66.041866,73.323691 67.070738,73.323691 c 1.686449,0 3.74403,4.646967 6.019259,13.594249 1.117635,4.395055 2.78847,9.281725 3.712974,10.859275 l 1.680922,2.868255 20.807806,0.45617 c 11.444291,0.2509 24.482621,0.45617 28.974041,0.45617 8.05247,0 8.17722,-0.0241 8.9543,-1.729595 1.63837,-3.59584 0.004,-6.73454 -14.46534,-27.772695 -11.85545,-17.238108 -14.11284,-20.929692 -15.37017,-25.135257 -0.81056,-2.71126 -2.73277,-7.398713 -4.27155,-10.416561 -2.00784,-3.937734 -2.8766,-6.576273 -3.07686,-9.344865 l -0.279046,-3.857868 6.443696,-1.494227 c 10.2349,-2.373366 14.51495,-2.861813 29.16872,-3.328793 9.55462,-0.304483 16.32428,-0.904282 22.10385,-1.958424 l 8.33109,-1.51952 17.83712,1.589789 c 9.81042,0.874384 20.26936,1.601744 23.24209,1.616355 5.14329,0.02528 5.50169,0.130111 7.40285,2.165306 1.09883,1.176306 1.99621,2.493324 1.99419,2.926708 -0.01,2.121104 -8.84031,23.805722 -12.65961,31.088005 -11.11715,21.197104 -18.36575,38.510617 -19.40588,46.351452 -0.45256,3.41158 -0.44999,3.41732 1.8631,4.14799 4.18868,1.32315 10.07376,2.12214 19.16661,2.60217 l 8.9602,0.47304 1.50619,-3.37366 c 1.22592,-2.7459 1.59864,-5.295795 2.00302,-13.703221 0.51261,-10.65823 0.79591,-12.225492 2.58633,-14.308404 0.96804,-1.126192 1.40323,-0.270873 5.43092,10.673874 4.35239,11.827066 4.37709,11.935226 4.13171,18.095901 -0.17857,4.48334 0.10455,7.53116 1.02352,11.0182 1.81228,6.8767 2.5596,15.73976 2.77214,32.87682 l 0.18569,14.97225 -2.66,1.06405 c -3.07917,1.23171 -3.31587,1.05702 -6.31736,-4.66203 -2.45202,-4.67207 -3.60076,-10.43044 -4.4316,-22.2147 -0.40056,-5.68125 -0.92441,-12.88612 -1.16411,-16.01081 l -0.43582,-5.68125 -3.51375,0.0398 c -1.93257,0.0219 -11.62429,0.42887 -21.53717,0.9044 -19.58247,0.9394 -19.61692,0.94769 -21.37126,5.14468 -0.76824,1.83788 -0.80772,3.04437 -0.19605,5.99078 0.94495,4.55179 1.98867,6.10056 12.7798,18.96378 6.96678,8.30451 8.96339,11.17735 10.37458,14.92751 1.22464,3.25445 4.20475,7.97542 9.96025,15.77863 9.35621,12.68502 12.81935,19.24402 13.39164,25.36305 0.52811,5.64642 0.0842,6.12167 -5.15096,5.51409 l -4.25627,-0.49399 -12.4585,-14.19365 c -8.38382,-9.55151 -12.97598,-15.36378 -14.04072,-17.77136 -1.41264,-3.19422 -4.66475,-7.14264 -5.88303,-7.14264 -0.89143,0 -1.96815,4.39268 -1.96815,8.0295 0,2.03069 0.48648,6.71022 1.08107,10.39895 0.68765,4.26604 1.00746,9.83945 0.87881,15.31477 -0.14167,6.02983 0.1732,10.7736 1.05129,15.83865 1.04831,6.04692 1.19426,9.65459 0.89152,22.03639 -0.445,18.19936 -2.58114,32.6479 -6.1028,41.27853 L 171.79886,285 Z M 155.47867,97.567645 c 1.43123,-0.90976 1.23599,-26.785124 -0.29863,-39.576418 -1.13557,-9.465304 -1.19253,-11.659949 -0.44456,-17.128292 1.4498,-10.599462 -0.60519,-13.443961 -10.22131,-14.148202 -4.29915,-0.31485 -25.74196,1.67541 -31.35323,2.910116 -3.7587,0.827071 -0.58501,9.23355 7.16611,18.981545 2.59208,3.259882 11.06557,15.732263 18.82995,27.716403 7.76438,11.984138 14.42695,21.785158 14.8057,21.780048 0.37875,-0.005 1.06094,-0.24596 1.51597,-0.5352 z m 20.6581,-17.317876 c 1.38711,-2.061293 4.3059,-7.794197 6.4862,-12.73979 2.18031,-4.945593 6.9044,-14.569948 10.49799,-21.387457 7.24939,-13.753047 7.8146,-15.253389 6.44913,-17.11868 -1.60203,-2.188422 -12.03248,-2.843949 -22.53805,-1.416461 -4.73437,0.643303 -8.84853,1.381885 -9.14255,1.641292 -1.3032,1.149761 -2.71714,16.924067 -2.81054,31.35523 -0.0996,15.396004 0.39644,19.930888 2.85614,26.108743 l 1.07303,2.695085 2.30333,-2.695085 c 1.26682,-1.482292 3.43822,-4.381585 4.82532,-6.442877 z"
     style="fill:#000000;stroke-width:0.6886372" />
</svg>
