<svg version="1.1" width="860" height="200" xmlns="http://www.w3.org/2000/svg" >
<defs><marker id="arrowhead" markerWidth="10" markerHeight="7" refX="0" refY="3.5" orient="auto"><polygon points="0 0, 10 3.5, 0 7" /></marker></defs>

<path d="M 10 100 h 830" stroke="#000000" stroke-width="1" fill="none"/>

<path d="M 10 30 V 100" stroke="#000000" stroke-width="1" fill="none"/>
<text x="5" y="25" style="font-size:13px;font-family:'Microsoft Yahei UI'">出生(1893/12/26)</text>

<path d="M 840 170 V 100" stroke="#000000" stroke-width="1" fill="none"/>
<text x="760" y="182" style="font-size:13px;font-family:'Microsoft Yahei UI'">逝世(1976/9/9)</text>

<path d="M 20 120 V 100" stroke="#000000" stroke-width="1" fill="none"/>
<path d="M 30 80 V 100" stroke="#000000" stroke-width="1" fill="none"/>
<path d="M 40 140 V 100" stroke="#000000" stroke-width="1" fill="none"/>
<path d="M 50 60 V 100" stroke="#000000" stroke-width="1" fill="none"/>
<path d="M 60 120 V 100" stroke="#000000" stroke-width="1" fill="none"/>
<path d="M 70 80 V 100" stroke="#000000" stroke-width="1" fill="none"/>
<path d="M 80 140 V 100" stroke="#000000" stroke-width="1" fill="none"/>
<path d="M 90 60 V 100" stroke="#000000" stroke-width="1" fill="none"/>

<path d="M 100 120 V 100" stroke="#000000" stroke-width="1" fill="none"/>
<path d="M 110 80 V 100" stroke="#000000" stroke-width="1" fill="none"/>
<path d="M 120 140 V 100" stroke="#000000" stroke-width="1" fill="none"/>
<path d="M 130 60 V 100" stroke="#000000" stroke-width="1" fill="none"/>
<path d="M 140 120 V 100" stroke="#000000" stroke-width="1" fill="none"/>
<path d="M 150 80 V 100" stroke="#000000" stroke-width="1" fill="none"/>
<path d="M 160 140 V 100" stroke="#000000" stroke-width="1" fill="none"/>
<path d="M 170 60 V 100" stroke="#000000" stroke-width="1" fill="none"/>
<path d="M 180 120 V 100" stroke="#000000" stroke-width="1" fill="none"/>
<path d="M 190 80 V 100" stroke="#000000" stroke-width="1" fill="none"/>

<path d="M 200 140 V 100" stroke="#000000" stroke-width="1" fill="none"/>
<path d="M 210 60 V 100" stroke="#000000" stroke-width="1" fill="none"/>
<path d="M 220 120 V 100" stroke="#000000" stroke-width="1" fill="none"/>
<path d="M 230 80 V 100" stroke="#000000" stroke-width="1" fill="none"/>
<path d="M 240 140 V 100" stroke="#000000" stroke-width="1" fill="none"/>
<path d="M 250 60 V 100" stroke="#000000" stroke-width="1" fill="none"/>
<path d="M 260 120 V 100" stroke="#000000" stroke-width="1" fill="none"/>
<path d="M 270 80 V 100" stroke="#000000" stroke-width="1" fill="none"/>
<path d="M 280 140 V 100" stroke="#000000" stroke-width="1" fill="none"/>
<path d="M 290 60 V 100" stroke="#000000" stroke-width="1" fill="none"/>

<path d="M 300 120 V 100" stroke="#000000" stroke-width="1" fill="none"/>
<path d="M 310 80 V 100" stroke="#000000" stroke-width="1" fill="none"/>
<path d="M 320 140 V 100" stroke="#000000" stroke-width="1" fill="none"/>
<path d="M 330 60 V 100" stroke="#000000" stroke-width="1" fill="none"/>
<path d="M 340 120 V 100" stroke="#000000" stroke-width="1" fill="none"/>
<path d="M 350 80 V 100" stroke="#000000" stroke-width="1" fill="none"/>
<path d="M 360 140 V 100" stroke="#000000" stroke-width="1" fill="none"/>
<path d="M 370 60 V 100" stroke="#000000" stroke-width="1" fill="none"/>
<path d="M 380 120 V 100" stroke="#000000" stroke-width="1" fill="none"/>
<path d="M 390 80 V 100" stroke="#000000" stroke-width="1" fill="none"/>

<path d="M 400 140 V 100" stroke="#000000" stroke-width="1" fill="none"/>
<path d="M 410 60 V 100" stroke="#000000" stroke-width="1" fill="none"/>
<path d="M 420 120 V 100" stroke="#000000" stroke-width="1" fill="none"/>
<path d="M 430 80 V 100" stroke="#000000" stroke-width="1" fill="none"/>
<path d="M 440 140 V 100" stroke="#000000" stroke-width="1" fill="none"/>
<path d="M 450 60 V 100" stroke="#000000" stroke-width="1" fill="none"/>
<path d="M 460 120 V 100" stroke="#000000" stroke-width="1" fill="none"/>
<path d="M 470 80 V 100" stroke="#000000" stroke-width="1" fill="none"/>
<path d="M 480 140 V 100" stroke="#000000" stroke-width="1" fill="none"/>
<path d="M 490 60 V 100" stroke="#000000" stroke-width="1" fill="none"/>

<path d="M 500 120 V 100" stroke="#000000" stroke-width="1" fill="none"/>
<path d="M 510 80 V 100" stroke="#000000" stroke-width="1" fill="none"/>
<path d="M 520 140 V 100" stroke="#000000" stroke-width="1" fill="none"/>
<path d="M 530 60 V 100" stroke="#000000" stroke-width="1" fill="none"/>
<path d="M 540 120 V 100" stroke="#000000" stroke-width="1" fill="none"/>
<path d="M 550 80 V 100" stroke="#000000" stroke-width="1" fill="none"/>
<path d="M 560 140 V 100" stroke="#000000" stroke-width="1" fill="none"/>
<path d="M 570 60 V 100" stroke="#000000" stroke-width="1" fill="none"/>
<path d="M 580 120 V 100" stroke="#000000" stroke-width="1" fill="none"/>
<path d="M 590 80 V 100" stroke="#000000" stroke-width="1" fill="none"/>

<path d="M 600 140 V 100" stroke="#000000" stroke-width="1" fill="none"/>
<path d="M 610 60 V 100" stroke="#000000" stroke-width="1" fill="none"/>
<path d="M 620 120 V 100" stroke="#000000" stroke-width="1" fill="none"/>
<path d="M 630 80 V 100" stroke="#000000" stroke-width="1" fill="none"/>
<path d="M 640 140 V 100" stroke="#000000" stroke-width="1" fill="none"/>
<path d="M 650 60 V 100" stroke="#000000" stroke-width="1" fill="none"/>
<path d="M 660 120 V 100" stroke="#000000" stroke-width="1" fill="none"/>
<path d="M 670 80 V 100" stroke="#000000" stroke-width="1" fill="none"/>
<path d="M 680 140 V 100" stroke="#000000" stroke-width="1" fill="none"/>
<path d="M 690 60 V 100" stroke="#000000" stroke-width="1" fill="none"/>

<path d="M 700 120 V 100" stroke="#000000" stroke-width="1" fill="none"/>
<path d="M 710 80 V 100" stroke="#000000" stroke-width="1" fill="none"/>
<path d="M 720 140 V 100" stroke="#000000" stroke-width="1" fill="none"/>
<path d="M 730 60 V 100" stroke="#000000" stroke-width="1" fill="none"/>
<path d="M 740 120 V 100" stroke="#000000" stroke-width="1" fill="none"/>
<path d="M 750 80 V 100" stroke="#000000" stroke-width="1" fill="none"/>
<path d="M 760 140 V 100" stroke="#000000" stroke-width="1" fill="none"/>
<path d="M 770 60 V 100" stroke="#000000" stroke-width="1" fill="none"/>
<path d="M 780 120 V 100" stroke="#000000" stroke-width="1" fill="none"/>
<path d="M 790 80 V 100" stroke="#000000" stroke-width="1" fill="none"/>

<path d="M 800 140 V 100" stroke="#000000" stroke-width="1" fill="none"/>
<path d="M 810 60 V 100" stroke="#000000" stroke-width="1" fill="none"/>
<path d="M 820 120 V 100" stroke="#000000" stroke-width="1" fill="none"/>
<path d="M 830 80 V 100" stroke="#000000" stroke-width="1" fill="none"/>

<text x="10" y="130" style="font-size:9px;font-family:'Arial'">M01</text>
<text x="30" y="150" style="font-size:9px;font-family:'Arial'">M03</text>
<text x="50" y="130" style="font-size:9px;font-family:'Arial'">M05</text>
<text x="70" y="150" style="font-size:9px;font-family:'Arial'">M07</text>
<text x="90" y="130" style="font-size:9px;font-family:'Arial'">M09</text>
<text x="110" y="150" style="font-size:9px;font-family:'Arial'">M11</text>
<text x="130" y="130" style="font-size:9px;font-family:'Arial'">M13</text>
<text x="150" y="150" style="font-size:9px;font-family:'Arial'">M15</text>
<text x="170" y="130" style="font-size:9px;font-family:'Arial'">M17</text>
<text x="190" y="150" style="font-size:9px;font-family:'Arial'">M19</text>
<text x="210" y="130" style="font-size:9px;font-family:'Arial'">M21</text>
<text x="230" y="150" style="font-size:9px;font-family:'Arial'">M23</text>
<text x="250" y="130" style="font-size:9px;font-family:'Arial'">M25</text>
<text x="270" y="150" style="font-size:9px;font-family:'Arial'">M27</text>
<text x="290" y="130" style="font-size:9px;font-family:'Arial'">M29</text>
<text x="310" y="150" style="font-size:9px;font-family:'Arial'">M31</text>
<text x="330" y="130" style="font-size:9px;font-family:'Arial'">M33</text>
<text x="350" y="150" style="font-size:9px;font-family:'Arial'">M35</text>
<text x="370" y="130" style="font-size:9px;font-family:'Arial'">M37</text>
<text x="390" y="150" style="font-size:9px;font-family:'Arial'">M39</text>
<text x="410" y="130" style="font-size:9px;font-family:'Arial'">M41</text>
<text x="430" y="150" style="font-size:9px;font-family:'Arial'">M43</text>
<text x="450" y="130" style="font-size:9px;font-family:'Arial'">M45</text>
<text x="470" y="150" style="font-size:9px;font-family:'Arial'">M47</text>
<text x="490" y="130" style="font-size:9px;font-family:'Arial'">M49</text>
<text x="510" y="150" style="font-size:9px;font-family:'Arial'">M51</text>
<text x="530" y="130" style="font-size:9px;font-family:'Arial'">M53</text>
<text x="550" y="150" style="font-size:9px;font-family:'Arial'">M55</text>
<text x="570" y="130" style="font-size:9px;font-family:'Arial'">M57</text>
<text x="590" y="150" style="font-size:9px;font-family:'Arial'">M59</text>
<text x="610" y="130" style="font-size:9px;font-family:'Arial'">M61</text>
<text x="630" y="150" style="font-size:9px;font-family:'Arial'">M63</text>
<text x="650" y="130" style="font-size:9px;font-family:'Arial'">M65</text>
<text x="670" y="150" style="font-size:9px;font-family:'Arial'">M67</text>
<text x="690" y="130" style="font-size:9px;font-family:'Arial'">M69</text>
<text x="710" y="150" style="font-size:9px;font-family:'Arial'">M71</text>
<text x="730" y="130" style="font-size:9px;font-family:'Arial'">M73</text>
<text x="750" y="150" style="font-size:9px;font-family:'Arial'">M75</text>
<text x="770" y="130" style="font-size:9px;font-family:'Arial'">M77</text>
<text x="790" y="150" style="font-size:9px;font-family:'Arial'">M79</text>
<text x="810" y="130" style="font-size:9px;font-family:'Arial'">M81</text>

<text x="20" y="75" style="font-size:9px;font-family:'Arial'">M02</text>
<text x="40" y="55" style="font-size:9px;font-family:'Arial'">M04</text>
<text x="60" y="75" style="font-size:9px;font-family:'Arial'">M06</text>
<text x="80" y="55" style="font-size:9px;font-family:'Arial'">M08</text>
<text x="100" y="75" style="font-size:9px;font-family:'Arial'">M10</text>
<text x="120" y="55" style="font-size:9px;font-family:'Arial'">M12</text>
<text x="140" y="75" style="font-size:9px;font-family:'Arial'">M14</text>
<text x="160" y="55" style="font-size:9px;font-family:'Arial'">M16</text>
<text x="180" y="75" style="font-size:9px;font-family:'Arial'">M18</text>
<text x="200" y="55" style="font-size:9px;font-family:'Arial'">M20</text>
<text x="220" y="75" style="font-size:9px;font-family:'Arial'">M22</text>
<text x="240" y="55" style="font-size:9px;font-family:'Arial'">M24</text>
<text x="260" y="75" style="font-size:9px;font-family:'Arial'">M26</text>
<text x="280" y="55" style="font-size:9px;font-family:'Arial'">M28</text>
<text x="300" y="75" style="font-size:9px;font-family:'Arial'">M30</text>
<text x="320" y="55" style="font-size:9px;font-family:'Arial'">M32</text>
<text x="340" y="75" style="font-size:9px;font-family:'Arial'">M34</text>
<text x="360" y="55" style="font-size:9px;font-family:'Arial'">M36</text>
<text x="380" y="75" style="font-size:9px;font-family:'Arial'">M38</text>
<text x="400" y="55" style="font-size:9px;font-family:'Arial'">M40</text>
<text x="420" y="75" style="font-size:9px;font-family:'Arial'">M42</text>
<text x="440" y="55" style="font-size:9px;font-family:'Arial'">M44</text>
<text x="460" y="75" style="font-size:9px;font-family:'Arial'">M46</text>
<text x="480" y="55" style="font-size:9px;font-family:'Arial'">M48</text>
<text x="500" y="75" style="font-size:9px;font-family:'Arial'">M50</text>
<text x="520" y="55" style="font-size:9px;font-family:'Arial'">M52</text>
<text x="540" y="75" style="font-size:9px;font-family:'Arial'">M54</text>
<text x="560" y="55" style="font-size:9px;font-family:'Arial'">M56</text>
<text x="580" y="75" style="font-size:9px;font-family:'Arial'">M58</text>
<text x="600" y="55" style="font-size:9px;font-family:'Arial'">M60</text>
<text x="620" y="75" style="font-size:9px;font-family:'Arial'">M62</text>
<text x="640" y="55" style="font-size:9px;font-family:'Arial'">M64</text>
<text x="660" y="75" style="font-size:9px;font-family:'Arial'">M66</text>
<text x="680" y="55" style="font-size:9px;font-family:'Arial'">M68</text>
<text x="700" y="75" style="font-size:9px;font-family:'Arial'">M70</text>
<text x="720" y="55" style="font-size:9px;font-family:'Arial'">M72</text>
<text x="740" y="75" style="font-size:9px;font-family:'Arial'">M74</text>
<text x="760" y="55" style="font-size:9px;font-family:'Arial'">M76</text>
<text x="780" y="75" style="font-size:9px;font-family:'Arial'">M78</text>
<text x="800" y="55" style="font-size:9px;font-family:'Arial'">M80</text>
<text x="820" y="75" style="font-size:9px;font-family:'Arial'">M82</text>


<!--
<text x="340" y="20" style="font-size:13px;font-family:'Arial'">SIZE (in byte)</text>

<path d="M 160 42 v -5 a 5 5 0 0 1 5 -5 h 200 a 5 5 0 0 0 5 -5 a 5 5 0 0 0 5 5 h 200 a 5 5 0 0 1 5 5 v 5" stroke="#000000" stroke-width="1" fill="none"/>
<path d="M 160 65 h 420 v -20 h -420 v 20" stroke="#0000FF" stroke-width="1" fill="none"/>
<path d="M 120 115 h 460 v -20 h -460 v 20" stroke="#0000FF" stroke-width="1" fill="none"/>
<path d="M 370 68 V 83" stroke="#000000" stroke-width="1" fill="none" marker-end="url(#arrowhead)"  />
<path d="M 160 95 v 20" stroke="#0000FF" stroke-width="1" fill="none"/>

<path d="M 80 215 h 460 v -20 h -460 v 20" stroke="#0000FF" stroke-width="1" fill="none"/>
<path d="M 120 215 v -20" stroke="#0000FF" stroke-width="1" fill="none"/>
<path d="M 160 215 v -20" stroke="#0000FF" stroke-width="1" fill="none"/>

<path d="M 120 118 v 20 l 40 10 V 183" stroke="#000000" stroke-width="1" fill="none" marker-end="url(#arrowhead)"  />
<path d="M 580 118 v 20 l -40 20 V 183" stroke="#000000" stroke-width="1" fill="none" marker-end="url(#arrowhead)"  />

<text x="135" y="110" style="font-size:13px;font-family:'Arial'">4</text>
<text x="135" y="210" style="font-size:13px;font-family:'Arial'">4</text>
<text x="95" y="210" style="font-size:13px;font-family:'Arial'">4</text>

<text x="110" y="87" style="font-size:13px;font-family:'Microsoft Yahei UI'">CRC校验码</text>
<text x="50" y="153" style="font-size:13px;font-family:'Microsoft Yahei UI'">压缩后的字节</text>
<text x="60" y="168" style="font-size:13px;font-family:'Arial'">(= size + 8)</text>
<text x="110" y="257" style="font-size:13px;font-family:'Microsoft Yahei UI'">压缩前的字节(= SIZE + 4)</text>
<path d="M 140 240 V 228" stroke="#000000" stroke-width="1" fill="none" marker-end="url(#arrowhead)"  />
<path d="M 100 172 V 183" stroke="#000000" stroke-width="1" fill="none" marker-end="url(#arrowhead)"  />

<path d="M 160 218 v 5 a 5 5 0 0 0 5 5 h 180 a 5 5 0 0 1 5 5 a 5 5 0 0 1 5 -5 h 180 a 5 5 0 0 0 5 -5 v -5" stroke="#000000" stroke-width="1" fill="none"/>
<text x="320" y="250" style="font-size:13px;font-family:'Arial'">size (in byte)</text>
-->
	
</svg>
